<svg width="33" height="33" viewBox="0 0 33 33" fill="none" xmlns="http://www.w3.org/2000/svg">
<path d="M25.3333 5.5H20.8333C20.281 5.5 19.8333 5.94772 19.8333 6.5V26.5C19.8333 27.0523 20.281 27.5 20.8333 27.5H25.3333C25.8855 27.5 26.3333 27.0523 26.3333 26.5V6.5C26.3333 5.94772 25.8855 5.5 25.3333 5.5Z" stroke="black" stroke-width="2" stroke-linecap="round" stroke-linejoin="round"/>
<path d="M11.8333 5.5H7.33325C6.78097 5.5 6.33325 5.94772 6.33325 6.5V26.5C6.33325 27.0523 6.78097 27.5 7.33325 27.5H11.8333C12.3855 27.5 12.8333 27.0523 12.8333 26.5V6.5C12.8333 5.94772 12.3855 5.5 11.8333 5.5Z" stroke="black" stroke-width="2" stroke-linecap="round" stroke-linejoin="round"/>
</svg>
