<svg width="33" height="33" viewBox="0 0 33 33" fill="none" xmlns="http://www.w3.org/2000/svg">
<path d="M28.8518 15.6467L10.8547 4.64815C10.7031 4.55551 10.5296 4.50492 10.352 4.5016C10.1744 4.49827 9.99905 4.54232 9.8441 4.62922C9.68915 4.71612 9.56015 4.84273 9.47036 4.99602C9.38058 5.14932 9.33325 5.32377 9.33325 5.50142V27.4986C9.33325 27.6762 9.38058 27.8507 9.47036 28.004C9.56015 28.1573 9.68915 28.2839 9.8441 28.3708C9.99905 28.4577 10.1744 28.5017 10.352 28.4984C10.5296 28.4951 10.7031 28.4445 10.8547 28.3519L28.8518 17.3533C28.998 17.2639 29.1187 17.1386 29.2025 16.9892C29.2863 16.8397 29.3303 16.6713 29.3303 16.5C29.3303 16.3287 29.2863 16.1603 29.2025 16.0108C29.1187 15.8614 28.998 15.7361 28.8518 15.6467Z" stroke="black" stroke-width="2" stroke-linecap="round" stroke-linejoin="round"/>
</svg>
